<?xml version="1.0" encoding="utf-8"?>
<!-- Generator: Adobe Illustrator 22.0.1, SVG Export Plug-In . SVG Version: 6.00 Build 0)  -->
<svg version="1.1" id="Слой_1" xmlns="http://www.w3.org/2000/svg" xmlns:xlink="http://www.w3.org/1999/xlink" x="0px" y="0px"
	 viewBox="0 0 935 325" style="enable-background:new 0 0 935 325;" xml:space="preserve">
<style type="text/css">
	.st0{fill:#FE5286;}
	.st1{fill:#FDFBFC;}
	.st2{fill:#FEDB01;}
	.st3{fill:#FDFAFB;}
	.st4{fill:#FDF8F9;}
	.st5{fill:#FDFBFB;}
	.st6{fill:#FDF8FA;}
	.st7{fill:#FE5386;}
	.st8{fill:#FE5587;}
	.st9{fill:#FD5888;}
</style>
<g>
	<path class="st0" d="M468.1,327.1c-154.8,0-309.7,0-464.5,0.1c-3.7,0-4.6-0.8-4.6-4.6C-0.9,216.4-0.9,110.3-1,4.1
		C-1,0.7-0.3,0,3.1,0c310,0.1,620,0.1,930,0c3.4,0,4.1,0.7,4.1,4.1c-0.1,106.3-0.1,212.7,0,319c0,3.4-0.7,4.1-4.1,4.1
		C778.1,327.1,623.1,327.1,468.1,327.1z M264.4,52.4c-2.7-0.5-4.3,1.3-6.2,2.8c-4.9,2.8-9.9,5.4-14.7,8.3c-2.5,1.5-4.1,1.5-6.5-0.5
		c-13.8-10.9-29.6-17.3-47.3-17.6c-40.4-0.6-74.4,26.7-83.5,66.3c-2.5,10.9-2,21.8-2.1,32.7c-1.3,0.1-2.7,0.1-3.9,0.3
		c-31,6.6-48.6,36.4-40.3,67.9c5.6,21.2,19.2,35.6,38.4,45.4c26.8,13.6,55.7,19.5,85.1,23.7c1.4,0.2,2.7,0,3.7-0.9
		c2.2-0.7,3.5-2.5,5.1-3.9c14.9-13.9,28.8-28.7,41.2-44.8c21.4-27.9,36.6-58.2,36.8-94.4c0-12.3-1.2-24.4-5.8-36.8
		c-9.5,11.3-18.4,21.9-27.4,32.6c-12.6,15.1-25.1,30.2-37.8,45.2c-7.9,9.3-19.4,9.1-26.3-0.5c-9.7-13.3-19.1-26.8-28.5-40.3
		c-2.5-3.5-3.7-7.5-2.9-11.8c1.2-6.4,5-10.8,11.5-12.5c6.4-1.6,12,0.1,16,5.4c5.6,7.4,11,15.1,16.3,22.7c1.5,2.2,2.3,2.3,3.9,0.2
		c2.5-3.3,5.3-6.4,8-9.6c21-25.2,42-50.3,63-75.5C261.5,55.4,262.9,53.9,264.4,52.4C264.3,52.3,264.4,52.4,264.4,52.4z M399.3,88.2
		c0-10.8,0-21.7,0-32.5c0-7.9-0.8-8.7-8.5-8.7c-17,0-34,0.2-51-0.1c-4.5-0.1-5.6,1.3-5.6,5.6c0,23.2-3.6,46-8.9,68.6
		c-0.8,3.6-2.3,5.7-6.3,5c-2.3-0.4-3.3,0.7-3.2,3.1c0.1,6.8,0,13.7,0.1,20.5c0,3.4,1.9,5.3,5.2,5.4c3.7,0.1,7.4-0.2,11,0.1
		c4.4,0.4,6.6-0.9,5.8-5.7c-0.7-3.8,1-4.8,4.7-4.8c13.5,0.2,27,0.1,40.5,0.1c2.6,0,4.5,0.1,4.4,3.6c-0.2,4.8,2.5,6.8,7.2,6.7
		c3.8-0.1,7.7-0.2,11.5,0c2.7,0.1,3.5-1,3.4-3.5c-0.1-6.3-0.1-12.7,0-19c0-4.3-2-6.8-6.3-6.5c-3.6,0.2-4.1-1.5-4.1-4.5
		C399.3,110.5,399.3,99.4,399.3,88.2z M418.8,97.4c0.1,1.4,0.2,4.3,0.5,7.1c2,19.4,14.3,34.5,32.6,40c18.7,5.6,39.2-0.2,51-14.9
		c9.7-12,11.6-26.1,10.2-41c-2.8-30.4-30-49.5-59.6-41.6C431.3,52.8,418.7,70.5,418.8,97.4z M876.3,97.5c0-14.5,0-29,0-43.4
		c0-3.9-0.9-7.1-5.7-7c-10.8,0-21.7-0.5-32.4,0.4c-12.7,1.1-23.4,6.4-29.3,18.6c-7.8,16-2.7,34.5,12,44.4c1,0.7,3,0.8,2.6,3.1
		c-1,5-11.7,14.4-16.9,14.8c-1.5,0.1-3.2-0.5-4.2,1.6c-3.3,7,0,14.2,7.6,15.9c9.3,2.1,16.6-1.3,22.6-8.3c4.8-5.6,8.7-11.8,11.7-18.4
		c1.9-4.2,5.7-3.3,8.6-3.1c2.6,0.2,1.3,3.2,1.3,5c0.2,5.8,0.1,11.7,0.1,17.5c0,4.3,2.1,6.5,6.5,6.4c3.5,0,7-0.2,10.5,0.1
		c3.9,0.3,5.2-0.9,5.1-5C876.2,125.8,876.3,111.7,876.3,97.5z M421.4,229.8c0,14.3,0,28.7,0,43c0,5.9,1.5,7.4,7.4,7.5
		c3.2,0.1,6.4-0.3,9.5,0.1c4.8,0.6,5.8-1.5,5.7-5.9c-0.2-22.8,0-45.7-0.2-68.5c0-3.5,0.7-5.1,4.6-4.9c8.7,0.3,17.3,0.2,26,0
		c3.1-0.1,4.1,1,4,4c-0.1,7.2,0,14.3,0,21.5c0,15.5,0,31,0,46.5c0,5.6,1.6,7.1,7.1,7.2c3.3,0.1,6.7-0.2,10,0.1
		c4.1,0.4,5.4-1,5.3-5.3c-0.2-28.3-0.1-56.7-0.1-85c0-6.1-1.6-7.8-7.6-7.8c-22.5,0-45,0.1-67.5-0.1c-3.6,0-4.5,1.2-4.4,4.6
		C421.5,201.1,421.4,215.5,421.4,229.8z M531,84.7c0.1,0,0.2,0,0.3,0c0,11.8-0.4,23.7,0.1,35.5c0.6,12.9,6.7,21.1,17.3,23.3
		c13.1,2.8,26.2,2.4,38.7-2.7c18.1-7.5,25.2-31.4,14-47.6c-9.2-13.3-23-15-37.8-13.7c-3.4,0.3-7.6,3.2-9.9,1
		c-2.2-2.1-0.3-6.7-0.7-10.1c-0.5-4,1.4-4.7,4.9-4.6c8.5,0.2,17,0.1,25.5,0.1c12.6,0,12.5,0,11.7-12.7c-0.3-4.3-2.2-6.2-6.6-6.2
		c-17.8,0.1-35.6,0.1-53.5,0c-3.3,0-4.2,1.1-4.2,4.3C531.1,62.4,531,73.5,531,84.7z M691.6,229.7c0,14.3,0,28.6,0,43
		c0,6.1,1.4,7.4,7.3,7.6c3.5,0.1,7-0.2,10.5,0.1c3.8,0.3,4.9-1.2,4.8-4.9c-0.2-8.7,0-17.3-0.1-26c-0.1-4.9,4.2-5.7,7.2-7
		c2.8-1.3,3.1,2.3,4,3.9c4.7,8.6,9.6,17.1,15.9,24.7c5.3,6.5,11.5,11.7,20.7,10.8c9.7-1,14.1-7.6,11-16.3c-0.5-1.4-0.8-2.5-2.6-2.3
		c-5.4,0.7-8.7-2.6-11.8-6.2c-6.5-7.6-11.8-16-16.8-24.7c-1.7-3-1.6-4.7,1.2-7.1c8.3-7.4,16.1-15.5,22.1-24.9
		c3.8-6,2.6-11.1-3.6-14.7c-1.6-0.9-3.4-1.4-5-2.3c-3.5-2-5.7-1.2-8,2.4c-8.3,12.8-18.6,23.9-30.5,33.4c-1,0.8-1.9,2.4-3.3,1.4
		c-0.6-0.5-0.5-2.1-0.5-3.2c0-9.3,0-18.6,0-28c0-4.7-2.3-7.1-7.1-7c-3.7,0-7.3,0.2-11-0.1c-3.5-0.3-4.5,1.1-4.5,4.5
		C691.7,201.1,691.6,215.4,691.6,229.7z M397.6,280.3c1.7,0,3.3,0,5,0c6.2,0,6.2,0,4.1-5.9c-9.9-27-20-53.9-29.7-81
		c-3.8-10.5-5.6-14-20.2-11c-1.1,0.2-2.2,0.7-3.4,0.9c-3.2,0.7-5,2.3-6.2,5.6c-3.6,10.5-7.6,20.9-11.4,31.4c-6.3,17-12.5,34-18.7,51
		c-2.4,6.6-0.8,8.9,6.4,9c3.5,0,7-0.2,10.5,0.1c2.9,0.2,4.2-1.1,4.9-3.7c1.3-4.5,2.9-8.8,4.2-13.3c0.8-2.6,2.1-3.7,5-3.6
		c8.3,0.2,16.7,0.3,25,0c4.1-0.2,6.2,1.2,7,5.1c0.3,1.3,0.8,2.5,1.3,3.8C385.1,280.3,385.1,280.3,397.6,280.3z M864.8,280.3
		c2.5,0,5-0.1,7.5,0c2.5,0.1,3.8-0.3,2.6-3.3c-11.1-29.8-22-59.6-33-89.4c-0.9-2.4-2.4-4.4-4.9-5.3c-6.6-2.3-12.8,0-19,2
		c-3.8,1.3-3.4,5.4-4.7,8.2c-1.1,2.2-1.8,4.7-2.6,7c-8.9,24.2-17.8,48.4-26.6,72.6c-2,5.6-0.4,7.9,5.4,8.2c3.5,0.1,7-0.2,10.5,0.1
		c3.5,0.3,5.5-0.8,6.4-4.5c0.9-3.7,2.7-7.2,3.5-10.9c0.9-4.4,3.3-5.4,7.4-5.2c6.3,0.3,12.7,0,19,0.1c11.5,0.2,8.6-1.7,12.2,8.7
		C852.4,280.3,852.4,280.3,864.8,280.3z M779.3,144.9c2,0,4-0.2,6,0c4.6,0.5,4.8-1.2,3.4-5.1c-10.1-27.4-20.1-54.9-30.1-82.4
		c-4.2-11.6-7.9-13.5-20-10.4c-1.4,0.4-2.9,0.9-4.3,1.2c-2.3,0.5-3.7,1.8-4.5,4.1c-10.2,28.3-20.5,56.5-30.7,84.8
		c-1.8,4.9,0.2,7.6,5.6,7.7c4,0.1,8-0.1,12,0.1c2.4,0.1,3.6-0.8,4.2-3.1c1.3-4.5,2.9-8.8,4.2-13.3c0.9-3.2,2.4-4.6,5.9-4.4
		c6.5,0.3,13,0,19.5,0.1c11.7,0.2,8.7-2,12.6,8.9C767.2,144.8,767,144.9,779.3,144.9z M623,94.7c0,14.3,0,28.6,0,43
		c0,0.2,0,0.3,0,0.5c-0.3,4.7,2.1,6.7,6.6,6.7c3.8,0,7.7-0.2,11.5,0c3,0.2,4.1-0.9,4-4c-0.2-6.2,0.1-12.3-0.1-18.5
		c-0.2-3.8,0.9-5.2,4.8-4.2c4.4,1.1,8.9,1,13.4,0.6c19.5-1.6,32.1-14.3,33.4-33.8c1.3-18.3-9.9-33.2-28.7-36.9
		c-14-2.8-28.2-0.7-42.3-1.2c-3.3-0.1-2.6,2.4-2.6,4.2C623,65.7,623,80.2,623,94.7z M609.3,221c0.5,10.9-0.8,24.3,0.8,37.6
		c1.7,13.9,9.5,21.2,23.4,21.6c9.8,0.3,19.7,0.1,29.5,0.1c12.2,0,12.1,0,11-12.4c-0.4-4.1-2.2-6-6.3-6c-6.5,0.1-13,0-19.5,0
		c-16.5,0-17.1-0.7-16.4-17.2c0.1-2.8,1-3.7,3.8-3.7c6.2,0.2,12.3,0,18.5,0c11.6,0,11.6,0,11.2-11.8c-0.2-5.8-1.4-7.1-7.1-7.2
		c-7.3-0.1-14.7-0.1-22,0c-3.1,0.1-4.6-0.6-4.4-4.1c0.3-4.3,0.2-8.7,0-13c-0.1-3,0.9-4,4-4c9,0.2,18,0.1,27,0.1
		c11.9,0,11.9,0,11.4-11.9c-0.2-5.2-1.7-6.9-6.9-6.9c-18-0.1-36,0.1-54-0.1c-3.4,0-4.1,1.2-4.1,4.4
		C609.4,197.3,609.3,207.9,609.3,221z M544.3,239.7c0,11.2,0,22.3,0,33.5c0,5.8,1.3,7,7.1,7.1c2.8,0.1,5.7,0,8.5,0
		c6.8,0,6.8,0,6.8-6.6c0-22.5,0.1-45-0.1-67.5c0-3.7,0.8-5.5,5-5.1c4.1,0.4,8.3,0.1,12.5,0.1c10.8,0,10.8,0,10.5-10.9
		c-0.2-6.5-1.6-8-8-8c-19.5,0-39,0-58.5,0c-12.7,0-12.6,0-11.8,12.5c0.3,4.2,2.3,6.4,6.6,6.3c5.7-0.1,11.3,0.2,17-0.1
		c3.6-0.2,4.5,1.2,4.4,4.6C544.2,217,544.3,228.3,544.3,239.7z"/>
	<path class="st1" d="M104.1,144.4c0.1-10.9-0.4-21.8,2.1-32.7c9.1-39.6,43.1-67,83.5-66.3c17.7,0.3,33.4,6.6,47.3,17.6
		c2.4,1.9,4.1,2,6.5,0.5c4.8-2.9,9.8-5.6,14.7-8.3c1,0.2,1.6,0.8,1.8,1.8c-21,25.2-42,50.3-63,75.5c-2.7,3.2-5.5,6.3-8,9.6
		c-1.6,2.1-2.5,1.9-3.9-0.2c-5.3-7.7-10.6-15.3-16.3-22.7c-4-5.3-9.6-7-16-5.4c-6.5,1.6-10.2,6-11.5,12.5c-0.8,4.3,0.4,8.3,2.9,11.8
		c9.5,13.5,18.9,27,28.5,40.3c6.9,9.6,18.4,9.8,26.3,0.5c12.7-15,25.2-30.1,37.8-45.2c8.9-10.7,17.9-21.3,27.4-32.6
		c4.7,12.4,5.9,24.4,5.8,36.8c-0.1,36.2-15.4,66.5-36.8,94.4c-12.4,16.1-26.3,30.9-41.2,44.8c-1.6,1.5-2.9,3.2-5.1,3.9
		c0-19.1-0.1-38.3,0-57.4c0-3.2-0.8-4.2-4.1-4.4c-19.5-0.8-36.5-8.2-50.9-21.3C116.3,183.4,107.6,165.3,104.1,144.4z"/>
	<path class="st2" d="M104.1,144.4c3.5,20.8,12.2,38.9,27.9,53.3c14.4,13.1,31.3,20.5,50.9,21.3c3.3,0.1,4.1,1.2,4.1,4.4
		c-0.1,19.1,0,38.3,0,57.4c-1.1,1-2.4,1.1-3.7,0.9C154,277.5,125,271.7,98.2,258c-19.2-9.8-32.7-24.2-38.4-45.4
		c-8.3-31.5,9.3-61.3,40.3-67.9C101.4,144.5,102.8,144.5,104.1,144.4z"/>
	<path class="st1" d="M399.3,88.2c0,11.2,0.1,22.3,0,33.5c0,3,0.5,4.7,4.1,4.5c4.3-0.2,6.3,2.2,6.3,6.5c-0.1,6.3-0.1,12.7,0,19
		c0,2.5-0.8,3.6-3.4,3.5c-3.8-0.2-7.7-0.1-11.5,0c-4.7,0.1-7.4-1.9-7.2-6.7c0.2-3.5-1.8-3.6-4.4-3.6c-13.5,0.1-27,0.1-40.5-0.1
		c-3.7-0.1-5.4,1-4.7,4.8c0.8,4.8-1.4,6.1-5.8,5.7c-3.6-0.3-7.3,0-11-0.1c-3.3-0.1-5.2-1.9-5.2-5.4c0-6.8,0-13.7-0.1-20.5
		c0-2.4,0.9-3.5,3.2-3.1c4,0.7,5.5-1.4,6.3-5c5.3-22.6,8.9-45.4,8.9-68.6c0-4.3,1.1-5.7,5.6-5.6c17,0.3,34,0.1,51,0.1
		c7.7,0,8.5,0.8,8.5,8.7C399.3,66.6,399.3,77.4,399.3,88.2z M377.3,96.5c0-8.6-0.2-17.3,0.1-25.9c0.1-3.8-1.2-4.9-4.8-4.7
		c-4.6,0.3-9.3,0.2-14,0c-2.6-0.1-3.5,0.9-3.6,3.4c-1.3,18.1-3.9,36-8.1,53.6c-0.6,2.3-0.3,3.3,2.4,3.3c8.3-0.1,16.6-0.1,24.9,0
		c2.9,0,3.2-1.5,3.2-3.7C377.3,113.8,377.3,105.1,377.3,96.5z"/>
	<path class="st3" d="M418.8,97.4c-0.1-26.9,12.5-44.6,34.8-50.5c29.5-7.8,56.8,11.2,59.6,41.6c1.4,14.9-0.6,29-10.2,41
		c-11.8,14.7-32.3,20.6-51,14.9c-18.4-5.5-30.7-20.6-32.6-40C419,101.7,418.9,98.8,418.8,97.4z M491.3,97.3c0-7.8-1.4-15.3-5.7-21.9
		c-5.2-7.9-12.6-11.9-22-11.1c-9.4,0.8-16.4,5.7-19.7,14.7c-4.8,13.4-4.5,26.6,3.8,38.6c10.4,15.1,32.8,12.9,40.5-3.8
		C490.6,108.6,491.3,103,491.3,97.3z"/>
	<path class="st3" d="M876.3,97.5c0,14.2-0.1,28.3,0.1,42.4c0.1,4-1.3,5.3-5.1,5c-3.5-0.3-7-0.1-10.5-0.1c-4.3,0-6.4-2.2-6.5-6.4
		c0-5.8,0.1-11.7-0.1-17.5c-0.1-1.7,1.2-4.8-1.3-5c-3-0.2-6.7-1.1-8.6,3.1c-3,6.7-7,12.8-11.7,18.4c-5.9,7-13.3,10.4-22.6,8.3
		c-7.7-1.7-11-8.9-7.6-15.9c1-2.1,2.7-1.5,4.2-1.6c5.2-0.4,15.9-9.9,16.9-14.8c0.5-2.3-1.5-2.4-2.6-3.1c-14.7-9.9-19.8-28.4-12-44.4
		c5.9-12.2,16.6-17.5,29.3-18.6c10.7-0.9,21.6-0.4,32.4-0.4c4.7,0,5.7,3.1,5.7,7C876.3,68.6,876.3,83,876.3,97.5z M854.3,81.1
		C854.3,81.1,854.3,81.1,854.3,81.1c0-1.3,0-2.7,0-4c0-12.1-1.8-13.5-14.1-10.9c-7.9,1.7-12.1,6.9-12.1,15.3c0,8.4,4,13.7,12,15.3
		c3.8,0.8,7.6,0.5,11.4,0.4c2.2-0.1,2.8-1.2,2.8-3.2C854.3,89.8,854.3,85.4,854.3,81.1z"/>
	<path class="st4" d="M421.4,229.8c0-14.3,0.1-28.7-0.1-43c0-3.4,0.9-4.6,4.4-4.6c22.5,0.1,45,0,67.5,0.1c6,0,7.6,1.7,7.6,7.8
		c0,28.3-0.1,56.7,0.1,85c0,4.2-1.2,5.7-5.3,5.3c-3.3-0.3-6.7,0-10-0.1c-5.6-0.1-7.1-1.6-7.1-7.2c-0.1-15.5,0-31,0-46.5
		c0-7.2-0.1-14.3,0-21.5c0.1-3-1-4.1-4-4c-8.7,0.2-17.3,0.3-26,0c-4-0.1-4.7,1.4-4.6,4.9c0.1,22.8,0,45.7,0.2,68.5
		c0,4.4-0.9,6.5-5.7,5.9c-3.1-0.4-6.3,0-9.5-0.1c-5.8-0.1-7.3-1.6-7.4-7.5C421.4,258.5,421.4,244.1,421.4,229.8z"/>
	<path class="st5" d="M531,84.7c0-11.2,0.1-22.3-0.1-33.5c0-3.2,0.8-4.3,4.2-4.3c17.8,0.1,35.6,0.1,53.5,0c4.4,0,6.3,1.9,6.6,6.2
		c0.8,12.7,0.9,12.7-11.7,12.7c-8.5,0-17,0.1-25.5-0.1c-3.5-0.1-5.4,0.6-4.9,4.6c0.4,3.4-1.4,8.1,0.7,10.1c2.3,2.2,6.5-0.7,9.9-1
		c14.7-1.3,28.5,0.4,37.8,13.7c11.2,16.2,4.1,40.1-14,47.6c-12.5,5.2-25.7,5.5-38.7,2.7c-10.6-2.2-16.7-10.4-17.3-23.3
		c-0.6-11.8-0.1-23.6-0.1-35.5C531.2,84.7,531.1,84.7,531,84.7z M566.1,97.7c-3,0.2-5.9,0.4-8.7,0.7c-3,0.3-4.7,1.5-4.4,5.1
		c0.4,4,0,8,0.1,12c0.3,8.2,2.9,10.6,10.9,10.7c3.2,0,6.3-0.3,9.4-1c7.5-1.8,11.3-7.1,10.6-15.1c-0.6-7.2-5.1-11.5-12.7-12
		C569.5,97.9,567.7,97.8,566.1,97.7z"/>
	<path class="st3" d="M691.6,229.7c0-14.3,0.1-28.6-0.1-43c0-3.5,1-4.8,4.5-4.5c3.6,0.3,7.3,0.1,11,0.1c4.7,0,7.1,2.3,7.1,7
		c0,9.3,0,18.7,0,28c0,1.1-0.1,2.7,0.5,3.2c1.4,1,2.4-0.6,3.3-1.4c11.9-9.6,22.1-20.7,30.5-33.4c2.3-3.5,4.5-4.3,8-2.4
		c1.6,0.9,3.4,1.4,5,2.3c6.2,3.5,7.5,8.6,3.6,14.7c-6.1,9.5-13.8,17.5-22.1,24.9c-2.7,2.4-2.9,4.2-1.2,7.1
		c5,8.7,10.3,17.1,16.8,24.7c3.1,3.7,6.4,6.9,11.8,6.2c1.8-0.2,2.1,0.9,2.6,2.3c3.1,8.7-1.3,15.3-11,16.3c-9.2,1-15.4-4.3-20.7-10.8
		c-6.3-7.6-11.2-16.1-15.9-24.7c-0.9-1.7-1.2-5.2-4-3.9c-3,1.4-7.3,2.1-7.2,7c0.1,8.7-0.1,17.3,0.1,26c0.1,3.7-1,5.2-4.8,4.9
		c-3.5-0.3-7,0-10.5-0.1c-5.9-0.1-7.2-1.5-7.3-7.6C691.6,258.4,691.6,244,691.6,229.7z"/>
	<path class="st3" d="M397.6,280.3c-12.5,0-12.5,0-16.4-11.6c-0.4-1.3-1-2.5-1.3-3.8c-0.8-3.9-2.8-5.3-7-5.1c-8.3,0.4-16.7,0.2-25,0
		c-2.9-0.1-4.2,1-5,3.6c-1.3,4.5-2.9,8.8-4.2,13.3c-0.8,2.6-2,3.9-4.9,3.7c-3.5-0.3-7,0-10.5-0.1c-7.1-0.1-8.8-2.3-6.4-9
		c6.2-17,12.5-34,18.7-51c3.8-10.5,7.8-20.9,11.4-31.4c1.1-3.3,3-4.9,6.2-5.6c1.1-0.2,2.2-0.7,3.4-0.9c14.6-3,16.5,0.6,20.2,11
		c9.7,27.1,19.8,54,29.7,81c2.1,5.8,2.1,5.8-4.1,5.9C401,280.3,399.3,280.3,397.6,280.3z M362,211.1c-0.5,0-1,0-1.4,0
		c-3.1,9.3-6.3,18.7-9.3,28c-0.6,2,1,2.1,2.4,2.1c5.2,0,10.3,0,15.5,0c1.4,0,2.9-0.1,2.3-2.1C368.2,229.8,365.1,220.5,362,211.1z"/>
	<path class="st3" d="M864.8,280.3c-12.5,0-12.4,0-16.4-11.7c-3.6-10.4-0.7-8.5-12.2-8.7c-6.3-0.1-12.7,0.2-19-0.1
		c-4.1-0.2-6.5,0.8-7.4,5.2c-0.8,3.7-2.6,7.2-3.5,10.9c-0.9,3.7-2.9,4.8-6.4,4.5c-3.5-0.3-7,0-10.5-0.1c-5.8-0.2-7.4-2.6-5.4-8.2
		c8.8-24.2,17.7-48.4,26.6-72.6c0.9-2.3,1.6-4.8,2.6-7c1.4-2.8,0.9-6.9,4.7-8.2c6.1-2,12.3-4.3,19-2c2.5,0.9,4,2.9,4.9,5.3
		c11,29.8,21.9,59.6,33,89.4c1.1,3-0.1,3.4-2.6,3.3C869.8,280.2,867.3,280.3,864.8,280.3z M829.2,210.8c-0.4,0-0.8,0-1.3-0.1
		c-3.1,9.5-6.3,19-9.4,28.5c-0.5,1.6,0.4,2.1,1.8,2.1c5.5,0,10.9,0,16.4,0c1.6,0,2.5-0.5,1.9-2.4
		C835.4,229.6,832.3,220.2,829.2,210.8z"/>
	<path class="st3" d="M779.3,144.9c-12.3,0-12.2-0.1-16.3-11.8c-3.9-10.9-0.9-8.7-12.6-8.9c-6.5-0.1-13,0.2-19.5-0.1
		c-3.6-0.2-5.1,1.3-5.9,4.4c-1.2,4.5-2.9,8.8-4.2,13.3c-0.7,2.3-1.8,3.2-4.2,3.1c-4-0.2-8,0-12-0.1c-5.3-0.2-7.3-2.9-5.6-7.7
		c10.2-28.3,20.5-56.5,30.7-84.8c0.8-2.3,2.1-3.6,4.5-4.1c1.5-0.3,2.9-0.9,4.3-1.2c12.2-3.1,15.8-1.2,20,10.4
		c10,27.5,19.9,55,30.1,82.4c1.4,3.8,1.2,5.6-3.4,5.1C783.3,144.7,781.3,144.9,779.3,144.9z M744,75.6c-0.4-0.1-0.9-0.1-1.3-0.2
		c-3.1,9.4-6.2,18.7-9.3,28.1c-0.7,2.2,0.6,2.5,2.4,2.5c5,0,9.9-0.1,14.9,0c2.6,0.1,3.3-1,2.5-3.3C750.1,93.7,747.1,84.6,744,75.6z"
		/>
	<path class="st1" d="M623,94.7c0-14.5,0-29,0-43.5c0-1.8-0.8-4.3,2.6-4.2c14.1,0.5,28.4-1.6,42.3,1.2c18.8,3.7,30,18.6,28.7,36.9
		c-1.4,19.5-14,32.2-33.4,33.8c-4.5,0.4-9,0.5-13.4-0.6c-3.9-1-5,0.4-4.8,4.2c0.3,6.2-0.1,12.3,0.1,18.5c0.1,3.1-1,4.1-4,4
		c-3.8-0.2-7.7-0.1-11.5,0c-4.5,0-6.9-2-6.6-6.7c0-0.2,0-0.3,0-0.5C623,123.4,623,109,623,94.7z M654.6,66c-1.3,0-2.7,0.2-4,0
		c-4.2-0.6-5.9,0.7-5.6,5.3c0.4,5.8,0.1,11.6,0.1,17.4c0,11.5,0,11.5,11.6,11.3c13.1-0.3,20.4-10.1,16.9-22.7
		C671.3,69.2,666.1,66.1,654.6,66z"/>
	<path class="st3" d="M609.3,221c0-13,0.1-23.7-0.1-34.4c0-3.1,0.7-4.4,4.1-4.4c18,0.2,36,0,54,0.1c5.2,0,6.7,1.7,6.9,6.9
		c0.4,11.9,0.4,11.9-11.4,11.9c-9,0-18,0.1-27-0.1c-3.1-0.1-4.1,0.9-4,4c0.2,4.3,0.3,8.7,0,13c-0.2,3.5,1.3,4.2,4.4,4.1
		c7.3-0.2,14.7-0.1,22,0c5.7,0.1,6.9,1.4,7.1,7.2c0.4,11.8,0.4,11.8-11.2,11.8c-6.2,0-12.3,0.1-18.5,0c-2.8-0.1-3.7,0.8-3.8,3.7
		c-0.7,16.4-0.1,17.2,16.4,17.2c6.5,0,13,0.1,19.5,0c4.1,0,5.9,1.9,6.3,6c1.1,12.4,1.2,12.4-11,12.4c-9.8,0-19.7,0.1-29.5-0.1
		c-14-0.4-21.8-7.8-23.4-21.6C608.5,245.3,609.8,231.9,609.3,221z"/>
	<path class="st6" d="M544.3,239.7c0-11.3-0.1-22.7,0.1-34c0-3.4-0.8-4.8-4.4-4.6c-5.7,0.3-11.3,0-17,0.1c-4.3,0-6.4-2.1-6.6-6.3
		c-0.8-12.5-0.9-12.5,11.8-12.5c19.5,0,39,0,58.5,0c6.4,0,7.8,1.4,8,8c0.3,10.9,0.3,10.9-10.5,10.9c-4.2,0-8.4,0.3-12.5-0.1
		c-4.1-0.4-5,1.4-5,5.1c0.1,22.5,0.1,45,0.1,67.5c0,6.6,0,6.6-6.8,6.6c-2.8,0-5.7,0-8.5,0c-5.8-0.1-7.1-1.3-7.1-7.1
		C544.3,262,544.3,250.8,544.3,239.7z"/>
	<path class="st4" d="M260,56.9c-0.2-1-0.8-1.6-1.8-1.8c1.8-1.4,3.5-3.2,6.2-2.8c0,0-0.1-0.1-0.1-0.1
		C262.9,53.9,261.5,55.4,260,56.9z"/>
	<path class="st4" d="M264.4,52.4C264.4,52.4,264.3,52.3,264.4,52.4C264.3,52.3,264.4,52.4,264.4,52.4z"/>
	<path class="st0" d="M377.3,96.5c0,8.6,0,17.3,0,25.9c0,2.3-0.3,3.8-3.2,3.7c-8.3-0.1-16.6-0.1-24.9,0c-2.7,0-2.9-1-2.4-3.3
		c4.3-17.6,6.9-35.5,8.1-53.6c0.2-2.5,1.1-3.5,3.6-3.4c4.7,0.1,9.3,0.2,14,0c3.7-0.2,5,0.9,4.8,4.7
		C377.1,79.2,377.3,87.8,377.3,96.5z"/>
	<path class="st7" d="M491.3,97.3c0,5.7-0.7,11.3-3.1,16.5c-7.6,16.6-30,18.9-40.5,3.8c-8.3-12-8.7-25.3-3.8-38.6
		c3.2-9,10.3-13.9,19.7-14.7c9.4-0.8,16.8,3.3,22,11.1C489.9,82,491.3,89.5,491.3,97.3z"/>
	<path class="st7" d="M854.3,81.1c0,4.3,0,8.7,0,13c0,2-0.6,3.1-2.8,3.2c-3.8,0.2-7.7,0.4-11.4-0.4c-8-1.7-12-6.9-12-15.3
		c0-8.4,4.2-13.7,12.1-15.3c12.3-2.6,14.1-1.2,14.1,10.9C854.3,78.5,854.3,79.8,854.3,81.1C854.3,81.1,854.3,81.1,854.3,81.1z"/>
	<path class="st7" d="M566.1,97.7c1.6,0.1,3.4,0.2,5.3,0.3c7.7,0.6,12.2,4.8,12.7,12c0.6,7.9-3.1,13.3-10.6,15.1
		c-3.1,0.7-6.2,1-9.4,1c-8-0.1-10.6-2.5-10.9-10.7c-0.1-4,0.2-8-0.1-12c-0.3-3.6,1.4-4.7,4.4-5.1C560.2,98.1,563,98,566.1,97.7z"/>
	<path class="st8" d="M362,211.1c3.1,9.3,6.3,18.7,9.3,28c0.7,2-0.8,2.1-2.3,2.1c-5.2,0-10.3,0-15.5,0c-1.4,0-3-0.2-2.4-2.1
		c3-9.4,6.2-18.7,9.3-28C361,211.1,361.5,211.1,362,211.1z"/>
	<path class="st8" d="M829.2,210.8c3.1,9.4,6.3,18.7,9.4,28.1c0.6,1.9-0.2,2.4-1.9,2.4c-5.5,0-10.9,0-16.4,0c-1.4,0-2.3-0.4-1.8-2.1
		c3.1-9.5,6.3-19,9.4-28.5C828.4,210.8,828.8,210.8,829.2,210.8z"/>
	<path class="st9" d="M744,75.6c3.1,9.1,6.1,18.1,9.1,27.2c0.8,2.3,0.1,3.4-2.5,3.3c-5-0.1-9.9-0.1-14.9,0c-1.7,0-3.1-0.3-2.4-2.5
		c3.1-9.4,6.2-18.7,9.3-28.1C743.2,75.5,743.6,75.5,744,75.6z"/>
	<path class="st0" d="M654.6,66c11.6,0,16.7,3.1,19,11.4c3.5,12.6-3.8,22.4-16.9,22.7c-11.6,0.2-11.6,0.2-11.6-11.3
		c0-5.8,0.3-11.7-0.1-17.4c-0.4-4.6,1.4-6,5.6-5.3C651.9,66.2,653.2,66,654.6,66z"/>
</g>
</svg>
